<svg xmlns="http://www.w3.org/2000/svg" viewBox="0 0 900 700">
  <defs>
    <radialGradient id="a" cx="25%" cy="20%" r="70%"><stop offset="0" stop-color="#ff4967" stop-opacity=".32"/><stop offset="1" stop-color="#05080e" stop-opacity="0"/></radialGradient>
    <radialGradient id="b" cx="80%" cy="65%" r="70%"><stop offset="0" stop-color="#6d2740" stop-opacity=".45"/><stop offset="1" stop-color="#05080e" stop-opacity="0"/></radialGradient>
    <linearGradient id="c" x1="0" y1="0" x2="1" y2="1"><stop stop-color="#101827"/><stop offset="1" stop-color="#05080e"/></linearGradient>
  </defs>
  <rect width="900" height="700" fill="url(#c)"/>
  <rect width="900" height="700" fill="url(#a)"/>
  <rect width="900" height="700" fill="url(#b)"/>
  <g opacity=".26" stroke="#ff4967" stroke-width="5" fill="none">
    <path d="M-40 160C190 80 350 100 520 30S790 40 940-40"/>
    <path d="M-60 470C120 360 310 390 470 290S760 210 950 260"/>
  </g>
  <g opacity=".42" fill="#ff6a57">
    <circle cx="130" cy="120" r="5"/><circle cx="230" cy="255" r="3"/><circle cx="720" cy="105" r="4"/><circle cx="790" cy="445" r="5"/><circle cx="390" cy="505" r="3"/><circle cx="570" cy="210" r="4"/>
  </g>
  <g opacity=".36" fill="#ff6b7f">
    <path d="M690 330l34-18-18 34 18 34-34-18-34 18 18-34-18-34z"/>
    <path d="M180 460l24-13-13 24 13 24-24-13-24 13 13-24-13-24z"/>
    <path d="M540 115l18-10-9 19 9 19-18-10-18 10 9-19-9-19z"/>
  </g>
  <text x="50%" y="46%" text-anchor="middle" font-family="Arial, sans-serif" font-size="54" font-weight="800" fill="#ffffff" opacity=".08">KYUSEI</text>
  <text x="50%" y="55%" text-anchor="middle" font-family="Arial, sans-serif" font-size="22" font-weight="700" fill="#ffffff" opacity=".10">STORE SLOT</text>
</svg>
